<?xml version="1.0" encoding="UTF-8"?>
<svg id="Capa_2" data-name="Capa 2" xmlns="http://www.w3.org/2000/svg" viewBox="0 0 452.21 367.58">
  <defs>
    <style>
      .cls-1, .cls-2, .cls-3, .cls-4 {
        fill: #03696e;
      }

      .cls-1, .cls-2, .cls-4 {
        font-family: Lato-MediumItalic, Lato;
        font-style: italic;
        font-weight: 500;
      }

      .cls-1, .cls-4 {
        font-size: 80.36px;
      }

      .cls-5 {
        letter-spacing: -.02em;
      }

      .cls-6 {
        letter-spacing: 0em;
      }

      .cls-7 {
        letter-spacing: -.01em;
      }

      .cls-8 {
        letter-spacing: -.01em;
      }

      .cls-9 {
        letter-spacing: -.01em;
      }

      .cls-10 {
        letter-spacing: -.02em;
      }

      .cls-2 {
        font-size: 42.49px;
      }

      .cls-11 {
        letter-spacing: -.02em;
      }

      .cls-12 {
        letter-spacing: -.04em;
      }

      .cls-13 {
        letter-spacing: 0em;
      }

      .cls-14 {
        letter-spacing: 0em;
      }

      .cls-15 {
        letter-spacing: 0em;
      }

      .cls-4 {
        letter-spacing: -.02em;
      }

      .cls-16 {
        letter-spacing: 0em;
      }

      .cls-17 {
        letter-spacing: -.02em;
      }

      .cls-18 {
        fill: none;
        stroke: #03696e;
        stroke-miterlimit: 10;
        stroke-width: 6px;
      }

      .cls-19 {
        letter-spacing: -.03em;
      }

      .cls-20 {
        letter-spacing: -.02em;
      }
    </style>
  </defs>
  <g id="Capa_1-2" data-name="Capa 1">
    <g>
      <g>
        <g id="Capa_1-2" data-name="Capa 1-2">
          <g>
            <path class="cls-3" d="m300.07,218.15c.59-.77,1.1-1.61,1.77-2.29,3.38-3.44,6.83-6.83,10.2-10.27,1.75-1.79,3.76-2.8,6.32-2.69.4.02,1-.32,1.21-.68,5.26-8.76,13.14-13.42,23.12-14.69,5.35-.68,10.59-.08,15.66,1.87.59.23,1.27.31,1.9.31,8.43.02,16.85.05,25.28,0,3.41-.02,6.36.93,8.71,3.65.31-.29.6-.55.88-.83,4.68-4.8,9.36-9.61,14.04-14.41,4.78-4.9,12.94-3.66,15.87,2.49.53,1.12.52,2.51.71,3.78.5,3.27-.92,5.78-2.98,8.2-6.89,8.1-13.64,16.31-20.51,24.43-3.45,4.08-7.99,6.26-13.23,6.99-1.61.23-3.26.24-4.89.24-9.98.02-19.97.12-29.94-.05-3.7-.06-5.99,1.95-8.23,4.34-.16.17-.12.59-.08.88.49,2.86-.23,5.31-2.34,7.37-3.73,3.62-7.4,7.29-11.11,10.92-.43.42-.96.75-1.44,1.12h-1.72c-.44-.41-.88-.8-1.3-1.22-8.76-8.82-17.52-17.64-26.26-26.48-.64-.65-1.1-1.48-1.65-2.23v-.74h0Zm42.89,6.84c.5-.68.86-1.29,1.34-1.78,2.61-2.7,5.81-3.98,9.57-3.95,2.91.03,5.81.01,8.71,0,8.39-.03,16.77.08,25.15-.16,4.37-.13,8.09-2.14,10.96-5.52,3.23-3.8,6.41-7.65,9.61-11.47,3.88-4.64,7.79-9.26,11.63-13.93,1.8-2.18,1.58-5.03-.4-6.83-1.93-1.76-4.86-1.71-6.75.22-5.27,5.37-10.51,10.78-15.73,16.19-.3.31-.5.84-.5,1.27-.04,6.24-4.23,10.49-10.46,10.5-6.26.02-12.52,0-18.77,0-.52,0-1.08-.04-1.56-.22-1.12-.41-1.68-1.25-1.6-2.47.07-1.16.71-1.9,1.81-2.18.55-.14,1.13-.16,1.7-.16,6.3-.01,12.6.01,18.9-.02,3.32-.02,5.47-2.67,4.86-5.89-.44-2.3-2.41-3.79-5.14-3.8-8.88-.01-17.75,0-26.62-.02-.68,0-1.43-.04-2.04-.3-4.91-2.09-10.02-2.59-15.25-1.83-7.83,1.14-14,4.91-18.22,11.71-.51.83-.57,1.35.23,2.06,1.46,1.31,2.8,2.75,4.18,4.14,4.68,4.69,9.36,9.37,14.42,14.44h0Zm-37.08-6.27c8.19,8.17,16.23,16.18,24.64,24.58,3.39-3.58,6.58-6.92,9.75-10.28,1.14-1.21,1.17-2.51,0-3.69-6.87-6.9-13.75-13.78-20.65-20.64-1.14-1.14-2.44-1.13-3.58,0-3.3,3.23-6.57,6.49-10.15,10.05h0Z"/>
            <path class="cls-3" d="m373.49,177.03c-14.9.02-27.01-12.08-27.06-27.03-.05-14.93,12.05-27.08,26.97-27.08,15.05,0,27.14,12.06,27.12,27.06-.02,14.95-12.1,27.04-27.03,27.06h0Zm-.05-5.01c12.19,0,22.12-9.84,22.13-21.98.02-12.22-9.89-22.2-22.07-22.21-12.12-.02-22.12,9.93-22.13,22.02-.01,12.26,9.84,22.16,22.07,22.17h0Z"/>
            <path class="cls-3" d="m358.77,206.55c.01,1.43-1.04,2.51-2.44,2.51s-2.49-1.15-2.48-2.51c.01-1.35,1.05-2.39,2.41-2.41,1.45-.03,2.5.98,2.51,2.41h0Z"/>
            <path class="cls-3" d="m377.19,144.73c-.62-.36-1.21-.76-1.85-1.06-.86-.39-1.76-.94-2.66-.97-1.22-.05-2.18,1.22-2.15,2.4.04,1.29,1.09,2.28,2.5,2.37,3.51.23,6.13,2.2,7.04,5.3,1,3.38-.49,7.02-3.66,8.62-.81.41-1.06.86-.99,1.68.05.57.03,1.14,0,1.71-.06,1.4-1.07,2.37-2.44,2.37-1.37,0-2.55-.98-2.42-2.35.19-2-.28-3.35-2.3-4.14-.85-.33-1.54-1.2-2.18-1.94-1.01-1.17-.9-2.54.15-3.5,1.04-.94,2.38-.85,3.52.17.69.62,1.41,1.27,2.23,1.66,1.42.67,2.83-.07,3.3-1.54.42-1.34-.42-2.67-1.92-3-.32-.07-.65-.1-.97-.13-3.32-.26-5.96-2.57-6.69-5.86-.69-3.09.82-6.46,3.75-7.95.89-.45,1.16-.96,1.07-1.87-.06-.57-.04-1.14,0-1.71.09-1.3,1.14-2.26,2.44-2.26,1.3,0,2.56.97,2.41,2.24-.27,2.18.4,3.59,2.49,4.37.54.2.98.73,1.38,1.19.66.78.79,1.69.32,2.63-.47.92-1.23,1.39-2.38,1.55v.02Z"/>
          </g>
        </g>
        <g id="Capa_1-2-2" data-name="Capa 1-2">
          <g>
            <path class="cls-3" d="m84.96,121.19c1.15.24,2.3.49,3.41.73,6.41,1.46,11.81,4.67,16.16,9.58.52.59,1.04.77,1.78.77,5.4-.03,10.8,0,16.23,0h.87c1.39.07,2.3.8,2.3,1.92s-.87,1.85-2.3,1.88c-2.79.03-5.57,0-8.36,0h-7c5.92,11.25,5.61,22.18-.98,32.77,1.43,1.43,2.86,2.86,4.32,4.32,1.95-1.18,2.12-1.15,3.94.66,7.14,7.14,14.31,14.31,21.45,21.45.31.31.56.7.84,1.08.1-.07.17-.1.28-.17v-60.11h-1.92c-1.01,0-2.05.03-3.06,0-1.36-.07-2.16-.8-2.16-1.85,0-1.11.87-1.88,2.26-1.92,2.16-.03,4.35-.03,6.51,0,1.5.03,2.16.77,2.19,2.23v4.07h11.56c1.64,0,2.3.66,2.37,2.3v88.56c0,.59.07,1.32-.24,1.78-.35.52-1.08,1.18-1.64,1.15-.59-.03-1.32-.63-1.71-1.18-.31-.45-.21-1.18-.21-1.78v-86.99h-10.13v1.32c0,18.42,0,36.84-.03,55.26,0,.91.28,1.5.91,2.12,2.3,2.23,4.53,4.49,6.79,6.76,1.32,1.32,1.32,2.23.03,3.55-2.3,2.33-4.67,4.6-6.93,6.96-.42.45-.73,1.18-.73,1.78-.07,5.92-.03,11.87-.03,17.79,0,2.23-.59,2.82-2.82,2.82h-56.94v2.44h69.86v-3.24c0-.52-.07-1.18.21-1.53.42-.56,1.04-1.18,1.67-1.32.84-.17,1.71.38,1.74,1.32.1,2.4.14,4.81-.03,7.21-.03.49-1.01.98-1.64,1.32-.28.17-.73.03-1.08.03h-71.7c-2.37,0-2.89-.49-2.89-2.86v-3.34h-10.97c-2.33,0-2.89-.56-2.89-2.89,0-19.81,0-39.63.03-59.44,0-1.18-.28-1.98-1.29-2.65-.77-.49-1.39-1.11-2.05-1.74-1.43-1.29-1.71-2.4-.8-3.34.91-.94,1.78-.66,3.31.49,2.12,1.64,4.28,3.34,6.65,4.56,9.44,4.84,21.38,3.17,29.29-3.94,10.62-9.51,12.29-24.62,3.83-36.08-4.77-6.51-11.28-10.06-19.26-10.76-13.44-1.18-25.42,7.87-28.31,20.51-1.39,6.16-.8,12.08,1.92,17.79.21.45.45.87.66,1.32.52,1.22.24,2.23-.8,2.72-.98.49-1.88.14-2.54-1.01-1.92-3.52-3.17-7.28-3.55-11.25-.8-8.36,1.29-15.91,6.55-22.46,5.12-6.37,11.74-10.1,19.78-11.25.31-.03.63-.17.91-.24h6.41Zm-16.89,115.68h69.96v-1.39c0-4.91-.03-9.82.03-14.73,0-.91-.28-1.5-.91-2.12-11.14-11.11-22.25-22.22-33.36-33.33-1.78-1.78-1.81-2.05-.42-4.21-1.25-1.25-2.54-2.51-3.83-3.76-.14-.14-.31-.28-.49-.42-9.92,6.34-20.23,6.96-30.99,2.19v57.77h0Zm77.45-27.13c-5.43-5.43-10.86-10.86-16.23-16.23-1.92,1.88-3.94,3.9-6.09,6.06,5.4,5.4,10.86,10.83,16.26,16.23,2.12-2.12,4.14-4.14,6.06-6.06h0Zm-38.34-26.61c2.44,2.44,4.94,4.94,7.31,7.31,1.95-1.95,4-4,5.95-5.95-2.4-2.44-4.91-4.94-7.28-7.35-1.98,1.98-4,4.04-5.99,5.99h0Zm16.4,4.42c-2.02,2.02-4.07,4.07-6.09,6.06.91.94,1.95,1.98,2.89,2.93,2.05-2.05,4.07-4.07,6.06-6.06-.91-.98-1.95-2.02-2.86-2.93Zm-17.41-9.05c.84-.8,1.6-1.6,2.3-2.26-1.36-1.36-2.72-2.68-3.76-3.76-.8.66-1.71,1.36-2.47,1.98,1.29,1.36,2.58,2.65,3.94,4.04h0Z"/>
            <path class="cls-3" d="m81.65,175.38c-13.06-.07-23.61-10.66-23.65-23.65,0-13.09,10.73-23.71,23.89-23.65,12.99.07,23.51,10.76,23.44,23.82-.07,12.95-10.76,23.54-23.68,23.47h0Zm-19.81-23.71c-.03,11.04,8.74,19.88,19.78,19.92,11.04.03,20.02-8.88,20.02-19.88s-8.98-19.88-19.92-19.92c-10.93-.03-19.85,8.88-19.88,19.88Z"/>
            <path class="cls-3" d="m131.93,150.97v6.86c0,1.78-.63,2.4-2.33,2.4h-8.95c-1.57,0-2.26-.66-2.26-2.23v-14.1c0-1.43.63-2.09,2.09-2.12,3.1-.03,6.23-.03,9.33,0,1.53,0,2.12.66,2.12,2.19,0,2.33,0,4.67,0,7h0Zm-9.79-5.43v10.93h5.95v-10.93h-5.95Z"/>
            <path class="cls-3" d="m125.11,166.88c-1.6,0-3.17.03-4.77,0-1.25-.03-1.98-.77-1.98-1.85s.77-1.81,2.02-1.85c3.17-.03,6.37-.03,9.54,0,1.22,0,1.98.77,1.95,1.88,0,1.11-.73,1.78-1.98,1.81-1.57.03-3.17.03-4.77,0h0Z"/>
            <path class="cls-3" d="m90,206.96h12.75c.45,0,.91.03,1.32.14.98.21,1.5.84,1.46,1.81-.03.91-.52,1.53-1.46,1.71-.42.1-.91.14-1.32.14h-25.77c-.38,0-.73-.03-1.11-.07-1.04-.17-1.64-.8-1.64-1.81s.63-1.67,1.64-1.85c.42-.07.8-.07,1.22-.07,4.32,0,8.64,0,12.92,0h0Z"/>
            <path class="cls-3" d="m89.94,200.83h-12.75c-.45,0-.91,0-1.36-.07-.98-.1-1.57-.8-1.5-1.64.07-.66.63-1.36,1.11-1.81.31-.28,1.01-.21,1.53-.21h26.5c1.32.07,2.12.8,2.09,1.92,0,1.04-.77,1.78-2.05,1.81-2.44.03-4.91.03-7.35.03-2.09-.03-4.14-.03-6.23-.03h0Z"/>
            <path class="cls-3" d="m89.87,220.65h-12.99c-.49,0-1.11.03-1.43-.21-.52-.49-1.08-1.15-1.15-1.81-.07-.84.52-1.53,1.5-1.64.45-.07.91-.07,1.36-.07h25.49c.42,0,.84,0,1.22.07,1.04.1,1.64.73,1.67,1.78.03,1.01-.52,1.6-1.46,1.85-.38.1-.8.1-1.22.1-4.32-.07-8.64-.07-12.99-.07h0Z"/>
            <path class="cls-3" d="m90,230.5h-13.48c-1.39,0-2.26-.73-2.26-1.88,0-1.08.87-1.81,2.16-1.81h26.99c.98,0,1.81.28,2.02,1.22.14.59-.03,1.43-.42,1.88-.35.42-1.15.59-1.74.59h-13.27Z"/>
            <path class="cls-3" d="m125.14,230.5c-1.6,0-3.17.03-4.77,0-1.25-.03-2.02-.73-2.02-1.81s.73-1.85,1.98-1.85c3.17-.03,6.37-.03,9.54,0,1.25,0,1.98.7,2.02,1.81,0,1.08-.73,1.85-1.95,1.85-1.6.03-3.2,0-4.81,0h0Z"/>
            <path class="cls-3" d="m125.11,220.3c-1.5,0-3.03.03-4.53,0-1.5-.03-2.23-.7-2.23-1.88s.84-1.85,2.26-1.88c3.03-.03,6.02-.03,9.05,0,1.43,0,2.23.73,2.19,1.92,0,1.15-.7,1.78-2.12,1.85-1.53.03-3.06,0-4.63,0h0Z"/>
            <path class="cls-3" d="m65.42,151.59c0-8.67,7.28-16.12,15.78-16.16,1.43,0,2.19.56,2.3,1.64.1,1.18-.52,1.95-2.02,2.05-3.45.24-6.44,1.43-8.85,3.94-2.19,2.3-3.38,5.05-3.41,8.29,0,.38,0,.73-.03,1.11-.1,1.18-.8,1.92-1.81,1.95-1.11.03-1.81-.66-1.95-1.92-.03-.35,0-.63,0-.91h0Z"/>
          </g>
        </g>
        <circle class="cls-18" cx="103.4" cy="184.15" r="86.25"/>
        <circle class="cls-18" cx="362.96" cy="184.15" r="86.25"/>
        <text class="cls-2" transform="translate(10.9 314.39)"><tspan class="cls-19" x="0" y="0">R</tspan><tspan class="cls-8" x="23.65" y="0">e</tspan><tspan x="43.62" y="0">visa</tspan><tspan class="cls-17" x="112.92" y="0">r</tspan><tspan class="cls-13" x="126.78" y="0"> </tspan><tspan x="136.27" y="0">tus</tspan><tspan x="25.55" y="41.71">c</tspan><tspan class="cls-10" x="44.84" y="41.71">r</tspan><tspan x="58.78" y="41.71">édi</tspan><tspan class="cls-9" x="111.72" y="41.71">t</tspan><tspan class="cls-16" x="126.45" y="41.71">os</tspan></text>
        <text class="cls-2" transform="translate(274.06 314.39)"><tspan class="cls-12" x="0" y="0">P</tspan><tspan x="22.5" y="0">a</tspan><tspan class="cls-7" x="44.32" y="0">g</tspan><tspan class="cls-15" x="64.44" y="0">a</tspan><tspan class="cls-20" x="86.26" y="0">r</tspan><tspan class="cls-13" x="100.11" y="0"> </tspan><tspan x="109.61" y="0">tus</tspan><tspan x="23.59" y="41.71">cu</tspan><tspan class="cls-14" x="65.51" y="41.71">o</tspan><tspan class="cls-6" x="87.23" y="41.71">t</tspan><tspan class="cls-15" x="102.01" y="41.71">as</tspan></text>
      </g>
      <text class="cls-1" transform="translate(2.77 69.03)"><tspan x="0" y="0">Aho</tspan><tspan class="cls-5" x="135.69" y="0">r</tspan><tspan x="161.41" y="0">a pod</tspan><tspan class="cls-11" x="348.33" y="0">r</tspan><tspan x="374.04" y="0">ás</tspan></text>
      <text class="cls-4" transform="translate(217.33 204.14)"><tspan x="0" y="0">y</tspan></text>
    </g>
  </g>
</svg>